<mxfile host="app.diagrams.net" modified="2022-11-14T07:28:57.086Z" agent="5.0 (Windows NT 10.0; Win64; x64) AppleWebKit/537.36 (KHTML, like Gecko) Chrome/107.0.0.0 Safari/537.36" etag="4iSIdv0GT2KLfeNOUpCM" version="20.5.3" type="github">
  <diagram id="ocJ2UDWapJ8wmOQib-gG" name="Page-1">
    <mxGraphModel dx="868" dy="482" grid="1" gridSize="10" guides="1" tooltips="1" connect="1" arrows="1" fold="1" page="1" pageScale="1" pageWidth="850" pageHeight="1100" math="0" shadow="0">
      <root>
        <mxCell id="0" />
        <mxCell id="1" parent="0" />
        <mxCell id="Q4WmJUnaW-gMQN3SoK_--3" value="" style="edgeStyle=orthogonalEdgeStyle;rounded=0;orthogonalLoop=1;jettySize=auto;html=1;" edge="1" parent="1" source="Q4WmJUnaW-gMQN3SoK_--1" target="Q4WmJUnaW-gMQN3SoK_--2">
          <mxGeometry relative="1" as="geometry" />
        </mxCell>
        <mxCell id="Q4WmJUnaW-gMQN3SoK_--1" value="START" style="ellipse;whiteSpace=wrap;html=1;" vertex="1" parent="1">
          <mxGeometry x="365" y="60" width="120" height="80" as="geometry" />
        </mxCell>
        <mxCell id="Q4WmJUnaW-gMQN3SoK_--7" value="" style="edgeStyle=orthogonalEdgeStyle;rounded=0;orthogonalLoop=1;jettySize=auto;html=1;" edge="1" parent="1" source="Q4WmJUnaW-gMQN3SoK_--2" target="Q4WmJUnaW-gMQN3SoK_--6">
          <mxGeometry relative="1" as="geometry" />
        </mxCell>
        <mxCell id="Q4WmJUnaW-gMQN3SoK_--2" value="User navigates to&amp;nbsp;/lessons/[:lessonId]/whiteboard" style="whiteSpace=wrap;html=1;" vertex="1" parent="1">
          <mxGeometry x="313" y="240" width="225" height="100" as="geometry" />
        </mxCell>
        <mxCell id="Q4WmJUnaW-gMQN3SoK_--9" value="" style="edgeStyle=orthogonalEdgeStyle;rounded=0;orthogonalLoop=1;jettySize=auto;html=1;" edge="1" parent="1" source="Q4WmJUnaW-gMQN3SoK_--6" target="Q4WmJUnaW-gMQN3SoK_--8">
          <mxGeometry relative="1" as="geometry" />
        </mxCell>
        <mxCell id="Q4WmJUnaW-gMQN3SoK_--12" value="" style="edgeStyle=orthogonalEdgeStyle;rounded=0;orthogonalLoop=1;jettySize=auto;html=1;" edge="1" parent="1" source="Q4WmJUnaW-gMQN3SoK_--6" target="Q4WmJUnaW-gMQN3SoK_--11">
          <mxGeometry relative="1" as="geometry" />
        </mxCell>
        <mxCell id="Q4WmJUnaW-gMQN3SoK_--6" value="" style="rhombus;whiteSpace=wrap;html=1;" vertex="1" parent="1">
          <mxGeometry x="140" y="390" width="80" height="80" as="geometry" />
        </mxCell>
        <mxCell id="Q4WmJUnaW-gMQN3SoK_--8" value="" style="whiteSpace=wrap;html=1;" vertex="1" parent="1">
          <mxGeometry x="120" y="560" width="120" height="60" as="geometry" />
        </mxCell>
        <mxCell id="Q4WmJUnaW-gMQN3SoK_--10" value="no&lt;br&gt;" style="text;html=1;align=center;verticalAlign=middle;resizable=0;points=[];autosize=1;strokeColor=none;fillColor=none;" vertex="1" parent="1">
          <mxGeometry x="180" y="495" width="40" height="30" as="geometry" />
        </mxCell>
        <mxCell id="Q4WmJUnaW-gMQN3SoK_--15" value="" style="edgeStyle=orthogonalEdgeStyle;rounded=0;orthogonalLoop=1;jettySize=auto;html=1;entryX=1;entryY=0.5;entryDx=0;entryDy=0;" edge="1" parent="1" source="Q4WmJUnaW-gMQN3SoK_--11" target="Q4WmJUnaW-gMQN3SoK_--2">
          <mxGeometry relative="1" as="geometry">
            <mxPoint x="640" y="420" as="targetPoint" />
            <Array as="points">
              <mxPoint x="558" y="430" />
              <mxPoint x="558" y="290" />
            </Array>
          </mxGeometry>
        </mxCell>
        <mxCell id="Q4WmJUnaW-gMQN3SoK_--11" value="" style="whiteSpace=wrap;html=1;" vertex="1" parent="1">
          <mxGeometry x="360" y="400" width="120" height="60" as="geometry" />
        </mxCell>
        <mxCell id="Q4WmJUnaW-gMQN3SoK_--13" value="yes" style="text;html=1;align=center;verticalAlign=middle;resizable=0;points=[];autosize=1;strokeColor=none;fillColor=none;" vertex="1" parent="1">
          <mxGeometry x="230" y="405" width="40" height="30" as="geometry" />
        </mxCell>
      </root>
    </mxGraphModel>
  </diagram>
</mxfile>
